<svg xmlns="http://www.w3.org/2000/svg" viewBox="0 0 54 54"><defs><style>.cls-1{fill:none;}.cls-2,.cls-4{fill:#fff;}.cls-2{stroke:#999;stroke-miterlimit:10;stroke-width:1.5px;}.cls-3{fill:#999;}</style></defs><title>图层 2 副本 图像</title><g id="图层_2" data-name="图层 2"><g id="组_2" data-name="组 2"><g id="图层_2_副本_图像" data-name="图层 2 副本 图像"><rect class="cls-1" width="54" height="54"/><path class="cls-2" d="M15,46.7a4.26,4.26,0,0,1-4-4.47l-1-14.51v-1a2.31,2.31,0,0,0,.43-.29l17-14,16,14a3.61,3.61,0,0,0,.51.36v1.06L43,42.2a4.27,4.27,0,0,1-4,4.5Z"/><path class="cls-3" d="M6.31,22.6a3,3,0,0,0-.64,4.33,3.26,3.26,0,0,0,2.57,1.23,3.16,3.16,0,0,0,1.31-.29,2.8,2.8,0,0,0,.61-.34L27.45,15,43.77,27.49a3.07,3.07,0,0,0,.68.39A3.27,3.27,0,0,0,48.27,27a3,3,0,0,0-.51-4.34L30.29,8.76l-.79-.6a3.3,3.3,0,0,0-3.92-.05l-.9.65Z"/><path class="cls-3" d="M30,46.25h-5.9A4.26,4.26,0,0,1,19.7,42.1V35.2a4.25,4.25,0,0,1,4.35-4.15H30A4.25,4.25,0,0,1,34.3,35.2v6.9A4.26,4.26,0,0,1,30,46.25Z"/><path class="cls-3" d="M30.13,23.53A3.13,3.13,0,1,1,27,20.41,3.13,3.13,0,0,1,30.13,23.53Z"/><path class="cls-4" d="M31.78,38.83a4.42,4.42,0,0,0,.13-1.53,4,4,0,0,0-.41-1.44,4.2,4.2,0,0,0-.9-1.2,4.65,4.65,0,0,0-1.29-.82,3.63,3.63,0,0,1,2.42,1.91A3.58,3.58,0,0,1,31.78,38.83Z"/></g></g></g></svg>