<svg xmlns="http://www.w3.org/2000/svg" viewBox="0 0 54 54"><defs><style>.cls-1{fill:none;}.cls-2{fill:#fff;}.cls-3{fill:#00b7ee;}.cls-4{fill:#fdbc00;}</style></defs><title>图层 2 副本 图像 (6)</title><g id="图层_2" data-name="图层 2"><g id="组_2" data-name="组 2"><g id="图层_2_副本_图像" data-name="图层 2 副本 图像"><rect class="cls-1" width="54" height="54"/><path class="cls-2" d="M15,46.45a4,4,0,0,1-3.77-4.22l-1-14.53v-.87l.34-.25L27.44,12.7,43.28,26.51a3.32,3.32,0,0,0,.42.32v.92l-1,14.43A4,4,0,0,1,39,46.45Z"/><path class="cls-3" d="M27.43,13.68,39.17,23.93l3.62,3.15.16.13v.49L42,42.13v.1a3.27,3.27,0,0,1-3,3.47H15a3.27,3.27,0,0,1-3-3.47v-.1l-1-14.43v-.49a.18.18,0,0,0,.07-.05L15,23.94,27.43,13.68m0-2L14.06,22.78,10.16,26a3.51,3.51,0,0,1-.4.27l-.21.11v1.36l1,14.48a4.76,4.76,0,0,0,4.52,5H39a4.76,4.76,0,0,0,4.52-5l1-14.48V26.4l-.21-.12a2.86,2.86,0,0,1-.47-.33L40.16,22.8,27.45,11.71Z"/><path class="cls-3" d="M6.31,22.6a3,3,0,0,0-.64,4.33,3.26,3.26,0,0,0,2.57,1.23,3.16,3.16,0,0,0,1.31-.29,2.8,2.8,0,0,0,.61-.34L27.45,15,43.77,27.49a3.07,3.07,0,0,0,.68.39A3.27,3.27,0,0,0,48.27,27a3,3,0,0,0-.51-4.34L30.29,8.76l-.79-.6a3.3,3.3,0,0,0-3.92-.05l-.9.65Z"/><path class="cls-3" d="M30,46.25h-5.9A4.26,4.26,0,0,1,19.7,42.1V35.2a4.25,4.25,0,0,1,4.35-4.15H30A4.25,4.25,0,0,1,34.3,35.2v6.9A4.26,4.26,0,0,1,30,46.25Z"/><path class="cls-4" d="M30.13,23.53A3.13,3.13,0,1,1,27,20.41,3.13,3.13,0,0,1,30.13,23.53Z"/><path class="cls-3" d="M31.78,38.83a3.85,3.85,0,0,0-2.47-5"/><path class="cls-2" d="M31.78,38.83a4.42,4.42,0,0,0,.13-1.53,4,4,0,0,0-.41-1.44,4.2,4.2,0,0,0-.9-1.2,4.65,4.65,0,0,0-1.29-.82,3.63,3.63,0,0,1,2.42,1.91A3.58,3.58,0,0,1,31.78,38.83Z"/></g></g></g></svg>