<svg xmlns="http://www.w3.org/2000/svg" viewBox="0 0 54 54"><defs><style>.cls-1{fill:none;}.cls-2{fill:#999;}.cls-3{fill:#fff;}</style></defs><title>图层 2 副本 图像 (5)</title><g id="图层_2" data-name="图层 2"><g id="组_2" data-name="组 2"><g id="图层_2_副本_图像" data-name="图层 2 副本 图像"><rect class="cls-1" width="54" height="54"/><path class="cls-2" d="M43.59,27A16.32,16.32,0,0,0,27,10.6,16.32,16.32,0,0,0,10.41,27,16.82,16.82,0,0,0,21,42.63a8.55,8.55,0,0,0-.68,1.08,2.38,2.38,0,0,0,2.1,3.49H32a2.36,2.36,0,0,0,2.15-3.37,7.87,7.87,0,0,0-.81-1.3A16.81,16.81,0,0,0,43.59,27Z"/><path class="cls-2" d="M17.51,13.43a.84.84,0,0,0-.74.93,4.34,4.34,0,0,1-1.48,3.36h0c-.23.23-.37.2-.43.19-.76-.16-1.82-2-2.3-3.14a.84.84,0,0,0-1.1-.46A.83.83,0,0,0,11,15.41a9.41,9.41,0,0,0,2.55,3.71,5.57,5.57,0,0,1-1,.58.84.84,0,0,0-.5,1.08.83.83,0,0,0,.79.56.92.92,0,0,0,.28-.05,10.4,10.4,0,0,0,3.4-2.36h0c1.61-1.28,1.85-4.47,2-4.78S18,13.38,17.51,13.43Z"/><path class="cls-2" d="M43.05,14.15a.84.84,0,0,0-1.67.21,4.34,4.34,0,0,1-1.48,3.36h0c-.24.23-.37.2-.43.19-.76-.16-1.82-2-2.3-3.14a.84.84,0,0,0-1.1-.46.83.83,0,0,0-.46,1.09,9.41,9.41,0,0,0,2.55,3.71,6.39,6.39,0,0,1-1,.58.84.84,0,0,0,.29,1.64.92.92,0,0,0,.28-.05,10.52,10.52,0,0,0,3.4-2.36h0A6,6,0,0,0,43.05,14.15Z"/><ellipse class="cls-3" cx="27" cy="29.34" rx="10.98" ry="8.8"/><path class="cls-2" d="M21.46,29.61a1.22,1.22,0,0,1-1.22-1.21V25.92a1.22,1.22,0,1,1,2.43,0V28.4A1.21,1.21,0,0,1,21.46,29.61Z"/><path class="cls-2" d="M32.54,29.61a1.21,1.21,0,0,1-1.21-1.21V25.92a1.22,1.22,0,1,1,2.43,0V28.4A1.22,1.22,0,0,1,32.54,29.61Z"/><path class="cls-2" d="M27.09,36.48H27a6.56,6.56,0,0,1-5.59-3.62.62.62,0,0,1,.25-.82.6.6,0,0,1,.82.25,5.38,5.38,0,0,0,4.54,3A5.71,5.71,0,0,0,32,32a.61.61,0,1,1,1.1.51A7,7,0,0,1,27.09,36.48Z"/><path class="cls-3" d="M41.1,31.33a7.6,7.6,0,0,1-3.72,6,10.93,10.93,0,0,0,3.72-6Z"/><path class="cls-3" d="M16.57,22.24a9.38,9.38,0,0,0-1.49,2.29,9,9,0,0,0-.73,2.63A5.58,5.58,0,0,1,16.57,22.24Z"/></g></g></g></svg>