<svg xmlns="http://www.w3.org/2000/svg" viewBox="0 0 54 54"><defs><style>.cls-1{fill:none;}.cls-2{fill:#999;}.cls-3{fill:#fff;}</style></defs><title>图层 2 副本 图像 (2)</title><g id="图层_2" data-name="图层 2"><g id="组_2" data-name="组 2"><g id="图层_2_副本_图像" data-name="图层 2 副本 图像"><rect class="cls-1" width="54" height="54"/><path class="cls-2" d="M36.18,21.06a.8.8,0,0,1-.51-.17.85.85,0,0,1-.17-1.18.08.08,0,0,0,0-.11l-9-6.76H26.4l-9,6.77a.08.08,0,0,0,0,.11.85.85,0,0,1-1.35,1,1.77,1.77,0,0,1,.35-2.48l9-6.76a1.85,1.85,0,0,1,1.1-.35,1.82,1.82,0,0,1,1.09.35l9,6.76a1.77,1.77,0,0,1,.35,2.48A.83.83,0,0,1,36.18,21.06Z"/><path class="cls-2" d="M7.81,20.68a3.32,3.32,0,0,0-2.42,2.37,38,38,0,0,0,0,19.57A3.34,3.34,0,0,0,7.81,45,79.63,79.63,0,0,0,27,47.2,79.63,79.63,0,0,0,46.19,45a3.34,3.34,0,0,0,2.42-2.37,38,38,0,0,0,0-19.57,3.32,3.32,0,0,0-2.42-2.37A79.63,79.63,0,0,0,27,18.47,79.63,79.63,0,0,0,7.81,20.68Z"/><path class="cls-3" d="M14.15,32c-.92-.49-1.88-1.07-2-2a1.08,1.08,0,0,1,.2-.84A2.11,2.11,0,0,1,15.15,29a4,4,0,0,1,.92,1.09,1,1,0,0,0,1.12.5.91.91,0,0,0,.52-1.3,4.82,4.82,0,0,0-3.33-2.6A4,4,0,0,0,11,28a2.72,2.72,0,0,0-.72,2.1c.15,1.46,1.3,2.37,2.46,3.1l.68.4c.66.4,2,1.24,2.06,1.9A1.73,1.73,0,0,1,15,36.75c-1,1-2.88.38-3.5-.77a1.37,1.37,0,0,1-.16-.52.91.91,0,0,0-1.82.18,4,4,0,0,0,2.62,3.13A3.68,3.68,0,0,0,16.29,38a3.49,3.49,0,0,0,1-2.66,4,4,0,0,0-2-2.7C15,32.42,14.58,32.2,14.15,32Z"/><path class="cls-3" d="M35.74,36.43c-1.73.18-3.07.36-4,.43h0c-.31-1.48-.33-5.48-.8-9.11a.92.92,0,1,0-1.82.23c1.36,10.66.44,10.68,1.32,10.77.3,0,2.15-.13,5.52-.48a.92.92,0,0,0-.19-1.83Z"/><path class="cls-3" d="M44.51,37.55a.93.93,0,0,0-1-.83,18.36,18.36,0,0,1-4,0v0a20.63,20.63,0,0,1-.29-3.23s0,0,0,0L43.12,33a1,1,0,0,0,.88-.9.94.94,0,0,0-1-.94l-3.83.46a0,0,0,0,1,0,0c0-1,0-2.06,0-3.09,0,0,0,0,0,0l4.11-.2a.9.9,0,0,0,.87-1,.92.92,0,0,0-1-.88l-5.83.29s0,0,0,0v.84c-.17,9.69.29,10.5.64,10.78a2,2,0,0,0,1.15.2c1.54,0,3.08.12,4.62,0A.93.93,0,0,0,44.51,37.55Z"/><path class="cls-3" d="M23.57,27.92a.91.91,0,0,0-.86-.5.94.94,0,0,0-.81.59L18.07,38a.93.93,0,0,0,.53,1.19,1.05,1.05,0,0,0,.24.06.91.91,0,0,0,.95-.59l1-2.57h0l4.8-.14h0l1.13,2.21a1,1,0,0,0,1.16.52.92.92,0,0,0,.52-1.29Zm-2.06,6.24,1.35-3.52a0,0,0,0,1,0,0l1.77,3.43s0,0,0,0l-3.12.09S21.5,34.18,21.51,34.16Z"/><path class="cls-3" d="M7.1,25.42a3.43,3.43,0,0,1,.72-1.31,4.68,4.68,0,0,1,1.16-1,5.62,5.62,0,0,1,1.41-.54c.24-.06.49-.08.74-.12s.49,0,.74,0a13.38,13.38,0,0,0-1.42.35,6.87,6.87,0,0,0-1.33.58A5.25,5.25,0,0,0,7.1,25.42Z"/></g></g></g></svg>