<svg xmlns="http://www.w3.org/2000/svg" viewBox="0 0 54 54"><defs><style>.cls-1{fill:none;}.cls-2{fill:#00b7ee;}.cls-3{fill:#fff;}.cls-4{fill:#fdbc00;}</style></defs><title>图层 2 副本 图像 (9)</title><g id="图层_2" data-name="图层 2"><g id="组_2" data-name="组 2"><g id="图层_2_副本_图像" data-name="图层 2 副本 图像"><rect class="cls-1" width="54" height="54"/><circle class="cls-2" cx="17.92" cy="44.81" r="2.39"/><path class="cls-2" d="M38.48,44.81a2.4,2.4,0,1,1-2.39-2.4A2.39,2.39,0,0,1,38.48,44.81Z"/><path class="cls-2" d="M46.16,26.43,7.82,26.3c-1.17,0-2.11-1.23-2.1-2.74h0c0-1.52,1-2.74,2.12-2.74L24.42,19.5a31,31,0,0,1,5.1,0L46.18,21c1.17,0,2.11,1.23,2.1,2.75h0C48.28,25.21,47.33,26.44,46.16,26.43Z"/><path class="cls-2" d="M38.84,44.07,15.06,44a4.9,4.9,0,0,1-4.81-4L7.79,26.31l38.43.12L43.67,40.09A4.88,4.88,0,0,1,38.84,44.07Z"/><path class="cls-3" d="M16.15,38.93h0a1,1,0,0,1-1-1l0-10.25a1,1,0,0,1,1-1h0a1,1,0,0,1,1,1l0,10.24A1,1,0,0,1,16.15,38.93Z"/><path class="cls-3" d="M21.56,39h0a1,1,0,0,1-1-1l0-10.24a1,1,0,0,1,1-1h0a1,1,0,0,1,1,1l0,10.24A1,1,0,0,1,21.56,39Z"/><path class="cls-3" d="M27,39h0a1,1,0,0,1-1-1L26,27.7a1,1,0,0,1,1-1h0a1,1,0,0,1,1,1L28,38A1,1,0,0,1,27,39Z"/><path class="cls-3" d="M37.82,39h0a1,1,0,0,1-1-1l0-10.25a1,1,0,0,1,1-1h0a3,3,0,0,1,1.83,1.85L38.85,38A1,1,0,0,1,37.82,39Z"/><path class="cls-3" d="M32.4,39h0a1,1,0,0,1-1-1l0-10.24a1,1,0,0,1,1-1h0a1,1,0,0,1,1,1l0,10.25A1,1,0,0,1,32.4,39Z"/><path class="cls-4" d="M17.11,23.19A.8.8,0,0,1,16.6,23a.85.85,0,0,1-.17-1.18l6.87-9.13a.84.84,0,0,1,1.35,1l-6.87,9.14A.84.84,0,0,1,17.11,23.19Z"/><path class="cls-4" d="M36.89,22a.84.84,0,0,1-.67-.33l-6.87-9.14a.84.84,0,0,1,.17-1.18.85.85,0,0,1,1.18.17l6.87,9.13a.84.84,0,0,1-.17,1.18A.8.8,0,0,1,36.89,22Z"/><path class="cls-3" d="M42.12,38.55A3.27,3.27,0,0,1,41.6,40a4.49,4.49,0,0,1-1,1.13,5.72,5.72,0,0,1-1.32.74c-.23.09-.47.15-.71.23l-.73.13c.46-.18.92-.34,1.36-.56a8,8,0,0,0,1.22-.76A5.18,5.18,0,0,0,42.12,38.55Z"/><path class="cls-3" d="M7.48,23.64a1.4,1.4,0,0,1,.06-.73,2.16,2.16,0,0,1,.35-.65,2.55,2.55,0,0,1,.57-.47c.11-.07.22-.11.33-.17l.35-.1c-.19.16-.38.29-.55.44s-.33.31-.48.48A3.21,3.21,0,0,0,7.48,23.64Z"/></g></g></g></svg>